<svg width="320" height="250" viewBox="0 0 320 250" fill="none" xmlns="http://www.w3.org/2000/svg" role="img" aria-labelledby="title desc">
  <title id="title">Panel de sistema web</title>
  <desc id="desc">Ilustración de un panel administrativo minimalista en tonos lilas.</desc>
  <defs>
    <linearGradient id="panel" x1="20" y1="15" x2="300" y2="235" gradientUnits="userSpaceOnUse">
      <stop stop-color="#FFFFFF"/>
      <stop offset="1" stop-color="#F4F1FF"/>
    </linearGradient>
    <linearGradient id="accent" x1="65" y1="49" x2="285" y2="205" gradientUnits="userSpaceOnUse">
      <stop stop-color="#7C5CFF"/>
      <stop offset="1" stop-color="#B4A5FF"/>
    </linearGradient>
    <filter id="shadow" x="0" y="0" width="320" height="250" filterUnits="userSpaceOnUse" color-interpolation-filters="sRGB">
      <feFlood flood-opacity="0" result="BackgroundImageFix"/>
      <feColorMatrix in="SourceAlpha" type="matrix" values="0 0 0 0 0 0 0 0 0 0 0 0 0 0 0 0 0 0 127 0" result="hardAlpha"/>
      <feOffset dy="8"/>
      <feGaussianBlur stdDeviation="10"/>
      <feColorMatrix type="matrix" values="0 0 0 0 0.36 0 0 0 0 0.27 0 0 0 0 0.95 0 0 0 0.18 0"/>
      <feBlend mode="normal" in2="BackgroundImageFix" result="effect1_dropShadow"/>
      <feBlend mode="normal" in="SourceGraphic" in2="effect1_dropShadow" result="shape"/>
    </filter>
  </defs>
  <g filter="url(#shadow)">
    <rect x="14" y="12" width="292" height="220" rx="10" fill="url(#panel)" stroke="#856CFF" stroke-width="3"/>
    <path d="M14 43H306" stroke="#B6A9FF" stroke-width="3"/>
    <circle cx="32" cy="28" r="4" fill="#795BFF"/>
    <circle cx="47" cy="28" r="4" fill="#AA9AFF"/>
    <circle cx="62" cy="28" r="4" fill="#D0C8FF"/>
    <rect x="33" y="62" width="54" height="151" rx="6" fill="#F0ECFF"/>
    <rect x="45" y="78" width="27" height="5" rx="2.5" fill="#B3A5FF"/>
    <rect x="45" y="96" width="20" height="5" rx="2.5" fill="#CDC6FF"/>
    <rect x="45" y="114" width="29" height="5" rx="2.5" fill="#CDC6FF"/>
    <rect x="45" y="132" width="18" height="5" rx="2.5" fill="#CDC6FF"/>
    <rect x="45" y="150" width="25" height="5" rx="2.5" fill="#CDC6FF"/>
    <rect x="108" y="63" width="171" height="25" rx="5" fill="#E9E5FF"/>
    <rect x="120" y="72" width="74" height="6" rx="3" fill="#C7BEFF"/>
    <rect x="108" y="103" width="79" height="92" rx="6" fill="#EDE9FF"/>
    <rect x="201" y="103" width="78" height="42" rx="6" fill="#F0EDFF"/>
    <rect x="201" y="160" width="78" height="35" rx="6" fill="#F0EDFF"/>
    <rect x="119" y="116" width="57" height="10" rx="3" fill="#D3CCFF"/>
    <rect x="119" y="137" width="40" height="45" rx="4" fill="#D6D0FF"/>
    <rect x="164" y="137" width="12" height="45" rx="4" fill="#B8ABFF"/>
    <path d="M211 134L226 121L240 130L256 112L270 118" stroke="url(#accent)" stroke-width="5" stroke-linecap="round" stroke-linejoin="round"/>
    <circle cx="211" cy="134" r="4" fill="#795BFF"/>
    <circle cx="226" cy="121" r="4" fill="#795BFF"/>
    <circle cx="240" cy="130" r="4" fill="#795BFF"/>
    <circle cx="256" cy="112" r="4" fill="#795BFF"/>
    <circle cx="270" cy="118" r="4" fill="#795BFF"/>
    <rect x="213" y="172" width="22" height="12" rx="3" fill="#BDB1FF"/>
    <rect x="242" y="166" width="22" height="18" rx="3" fill="#8A72FF"/>
  </g>
</svg>
